<?xml version="1.0" encoding="UTF-8" standalone="no"?>
<svg
   xmlns:dc="http://purl.org/dc/elements/1.1/"
   xmlns:cc="http://creativecommons.org/ns#"
   xmlns:rdf="http://www.w3.org/1999/02/22-rdf-syntax-ns#"
   xmlns:svg="http://www.w3.org/2000/svg"
   xmlns="http://www.w3.org/2000/svg"
   xmlns:sodipodi="http://sodipodi.sourceforge.net/DTD/sodipodi-0.dtd"
   xmlns:inkscape="http://www.inkscape.org/namespaces/inkscape"
   id="Layer_1"
   viewBox="0 0 200 55"
   version="1.1"
   sodipodi:docname="logo.svg"
   inkscape:version="1.0.2 (e86c8708, 2021-01-15)">
  <metadata
     id="metadata19">
    <rdf:RDF>
      <cc:Work
         rdf:about="">
        <dc:format>image/svg+xml</dc:format>
        <dc:type
           rdf:resource="http://purl.org/dc/dcmitype/StillImage" />
        <dc:title></dc:title>
      </cc:Work>
    </rdf:RDF>
  </metadata>
  <defs
     id="defs17" />
  <sodipodi:namedview
     pagecolor="#ffffff"
     bordercolor="#666666"
     borderopacity="1"
     objecttolerance="10"
     gridtolerance="10"
     guidetolerance="10"
     inkscape:pageopacity="0"
     inkscape:pageshadow="2"
     inkscape:window-width="1680"
     inkscape:window-height="1050"
     id="namedview15"
     showgrid="false"
     inkscape:zoom="5.485"
     inkscape:cx="64.904284"
     inkscape:cy="27.5"
     inkscape:window-x="0"
     inkscape:window-y="721"
     inkscape:window-maximized="0"
     inkscape:current-layer="Layer_1" />
  <path
     d="M36 15.6c-.4-.3-.7-.7-.7-1.2C34.6 6.6 27.6.9 19.8 1.6c-6.8.6-12.2 6-12.9 12.8 0 .5-.3.9-.7 1.2-6.4 4.5-8 13.3-3.5 19.7 1.9 2.7 4.7 4.7 8 5.5 1 .3 2.1.4 2.5.2.8-.4 1.7-4 1.3-4.7-.2-.4-1.2-.8-2.3-1.1C7.8 34 5.1 29.5 6.3 25c.6-2.2 2-4 4-5.1 1.5-.9 2.4-2.5 2.4-4.2 0-4.6 3.7-8.3 8.4-8.3 4.6 0 8.4 3.7 8.4 8.3 0 1.7.9 3.4 2.4 4.2.8.4 1.5 1 2.1 1.7 3.1 3.4 2.8 8.7-.6 11.7-1.5 1.4-3.6 2.2-5.6 2.1-5.3 0-9.6 4.3-9.6 9.6v5.5c0 1.1.2 2.1.5 2.4.6.6 4.3.6 4.9 0 .3-.3.5-1.4.5-2.4V45c0-2.1 1.7-3.7 3.8-3.7C35.6 41.3 42 35 42 27.2c0-4.6-2.2-9-6-11.6"
     fill="#72ef36"
     id="path10" />
  <path
     d="M99.5 38h-4.3v-1.5c-1.3 1.3-3 2-5.1 2-2 0-3.5-.6-4.7-1.9-1.2-1.3-1.8-3-1.8-5V21.5h4.3v9.1c-.1 1 .3 2 .9 2.8.6.7 1.5 1.1 2.4 1.1 2.7 0 4.1-1.9 4.1-5.7v-7.3h4.3L99.5 38zM128.3 22.8c1.3 1.3 1.9 3 1.9 4.8V38h-4.3v-9.4c0-1-.3-1.9-.9-2.6-.6-.6-1.4-1-2.3-1-1.1 0-2.1.4-2.8 1.3-.7.8-1 2.1-1 3.8V38h-4.3v-9.4c0-1-.3-1.9-.9-2.6-.6-.6-1.4-1-2.3-1-1.1-.1-2.1.4-2.8 1.3-.7.8-1 2.1-1 3.8V38h-4.3V21.5h4.3v1.4c1.2-1.2 2.9-1.9 4.9-1.9 2.4 0 4.2.9 5.4 2.7 1.4-1.8 3.4-2.7 6-2.7 1.6-.1 3.2.6 4.4 1.8M146.9 37.3c-1.3.8-2.7 1.2-4.2 1.2-2 0-3.5-.5-4.7-1.6-1.1-1.1-1.7-2.7-1.7-4.9v-6.9h-3.5v-3.6h3.5v-5h4.3v5h5.3v3.6h-5.3v6.5c0 1.9.8 2.8 2.4 2.8.9 0 1.9-.3 2.7-.8l1.2 3.7zM161.6 21.4l-.2 4.3h-1c-3.9 0-5.9 2.4-5.9 7.2v5.4h-4.4V21.5h4.4v3.1c1.5-2.2 3.5-3.3 5.9-3.3.4-.1.8 0 1.2.1M180 30.9h-13c.2 1.1.7 2.1 1.5 2.8.7.7 1.7 1.1 2.8 1 1.9 0 3.4-.7 4.2-2.2l4 .8c-.6 1.6-1.8 2.9-3.3 3.8-1.5.9-3.3 1.3-5 1.3-2.3.1-4.6-.8-6.2-2.4-1.7-1.6-2.5-3.7-2.5-6.3 0-2.6.9-4.7 2.5-6.3a9.1 9.1 0 0 1 6.3-2.5c2.3 0 4.4.8 6 2.4 1.7 1.6 2.6 3.6 2.7 6.1v1.5zm-11.3-5.3c-.8.5-1.4 1.3-1.6 2.2h8.2c-.2-.9-.7-1.7-1.5-2.3-.7-.5-1.6-.8-2.5-.8-.9.1-1.8.4-2.6.9zM199.5 30.9h-13c.2 1.1.7 2.1 1.5 2.8.7.7 1.7 1.1 2.8 1 1.9 0 3.4-.7 4.2-2.2l4 .8c-.6 1.6-1.8 2.9-3.3 3.8-1.5.9-3.3 1.3-5 1.3-2.3.1-4.6-.8-6.2-2.4-1.7-1.6-2.5-3.7-2.5-6.3s.9-4.7 2.6-6.3a9.1 9.1 0 0 1 6.3-2.5c2.3 0 4.4.8 6 2.4 1.7 1.6 2.6 3.6 2.7 6.1l-.1 1.5zm-11.3-5.3c-.8.5-1.4 1.3-1.6 2.2h8.3c-.2-.9-.7-1.7-1.5-2.3-.7-.5-1.6-.8-2.5-.8-1 .1-1.9.4-2.7.9zM68 25.2v4.1h7.4c-.3 1.5-1.1 2.8-2.3 3.7-1.2.9-2.8 1.4-4.3 1.4-4 .1-7.3-3.1-7.3-7v-.3c0-1.9.7-3.8 2.1-5.2 1.3-1.4 3.1-2.1 5-2.1 2.8 0 4.9 1.1 6.3 3.3l3.6-2.4c-.8-1.4-2-2.6-3.4-3.4-2-1.2-4.3-1.7-6.6-1.7-3.1-.1-6.1 1.1-8.3 3.3-2.2 2.1-3.4 5-3.3 8.1-.1 3.1 1.2 6 3.4 8.2 2.2 2.2 5.2 3.4 8.4 3.3 3.3 0 5.9-1.1 8.1-3.3S80 30.3 80 27c0-.5 0-1.1-.1-1.9l-11.9.1z"
     fill="#fcecc7"
     id="path12"
     style="fill:#38341f;fill-opacity:1" />
</svg>
